<svg xmlns="http://www.w3.org/2000/svg" version="1.1" xmlns:xlink="http://www.w3.org/1999/xlink" xmlns:svgjs="http://svgjs.dev/svgjs" width="1000" height="1125" viewBox="0 0 1000 1125"><g transform="matrix(1,0,0,1,0.0011008540699322111,0)"><svg viewBox="0 0 320 360" data-background-color="#282634" preserveAspectRatio="xMidYMid meet" height="1125" width="1000" xmlns="http://www.w3.org/2000/svg" xmlns:xlink="http://www.w3.org/1999/xlink"><g id="tight-bounds" transform="matrix(1,0,0,1,0.00010353528136874957,0)"><svg viewBox="0 0 320 360" height="360" width="320"><g><svg></svg></g><g><svg viewBox="0 0 320 360" height="360" width="320"><g><path d="M307.925 179.999l6.575-11.387c11.322-19.607 4.604-44.679-15.003-56.001l-11.387-6.575v-13.151c0-22.639-18.354-40.994-40.994-40.994h-13.151l-6.575-11.387c-11.322-19.607-36.393-26.325-56.001-15.003l-11.39 6.572-11.387-6.576c-19.607-11.318-44.679-4.6-56.001 15.007l-6.575 11.387h-13.151c-22.639 0-40.994 18.354-40.994 40.994v13.151l-11.387 6.575c-19.607 11.322-26.325 36.393-15.003 56.001l6.572 11.387-6.576 11.387c-11.318 19.607-4.6 44.679 15.007 56l11.387 6.576v13.15c0 22.639 18.354 40.994 40.994 40.994h13.151l6.575 11.387c11.322 19.607 36.393 26.325 56.001 15.003l11.387-6.571 11.387 6.575c19.607 11.322 44.679 4.604 56-15.003l6.576-11.387h13.15c22.639 0 40.994-18.354 40.994-40.994v-13.151l11.387-6.575c19.607-11.322 26.325-36.393 15.003-56.001zM297.702 115.716c8.655 4.996 14.842 13.062 17.428 22.713 2.586 9.65 1.261 19.734-3.735 28.384l-5.538 9.596-17.747-30.74v-35.494zM251.155 271.155l-57.791 33.365h-66.731l-57.791-33.365-33.365-57.791v-66.731l33.365-57.791 57.791-33.365h66.731l57.791 33.365 33.365 57.791v66.731zM284.517 220.539v31.351l-27.151 15.676zM247.566 277.366l-15.676 27.151h-31.351zM187.15 308.106l-27.151 15.676-27.151-15.676zM119.459 304.517h-31.352l-15.676-27.151zM62.632 267.566l-27.151-15.676v-31.351zM31.891 207.15l-15.675-27.151 15.675-27.151zM35.481 139.459v-31.352l27.151-15.676zM72.431 82.632l15.676-27.151h31.352zM132.848 51.891l27.151-15.675 27.151 15.675zM200.539 55.481h31.351l15.676 27.151zM257.366 92.431l27.151 15.676v31.352zM288.106 152.848l15.676 27.151-15.676 27.151zM247.112 55.481c9.992 0 19.384 3.889 26.452 10.956 7.063 7.063 10.956 16.46 10.957 26.452v11.079l-30.741-17.747-17.747-30.74zM173.18 28.606c8.655-4.996 18.735-6.322 28.385-3.735 9.65 2.586 17.716 8.777 22.712 17.428l5.538 9.596h-35.494l-30.741-17.747zM95.716 42.295c4.996-8.655 13.062-14.842 22.713-17.428 9.65-2.586 19.734-1.261 28.384 3.736l9.596 5.537-30.74 17.747h-35.494zM35.481 92.885c0-9.992 3.889-19.384 10.956-26.452 7.063-7.063 16.46-10.956 26.452-10.956h11.079l-17.747 30.74-30.74 17.747zM8.606 166.817c-4.996-8.655-6.322-18.735-3.735-28.385 2.586-9.65 8.777-17.716 17.428-22.712l9.596-5.538v35.495l-17.747 30.74zM22.295 244.281c-8.655-4.996-14.842-13.062-17.428-22.712-2.586-9.65-1.261-19.734 3.736-28.385l5.537-9.596 17.747 30.74v35.495zM72.885 304.517c-9.992 0-19.384-3.889-26.452-10.957-7.063-7.063-10.956-16.46-10.956-26.451v-11.08l30.74 17.747 17.747 30.741zM146.817 331.391c-8.655 4.996-18.735 6.322-28.385 3.735-9.65-2.586-17.716-8.777-22.712-17.428l-5.538-9.596h35.495l30.74 17.747zM224.281 317.702c-4.996 8.655-13.062 14.842-22.712 17.428-9.65 2.586-19.734 1.261-28.385-3.735l-9.596-5.538 30.74-17.747h35.495zM284.517 267.112c0 9.992-3.889 19.384-10.957 26.452-7.063 7.063-16.46 10.956-26.451 10.957h-11.08l17.747-30.741 30.741-17.747zM315.13 221.565c-2.586 9.65-8.777 17.716-17.428 22.712l-9.596 5.538v-35.494l17.747-30.741 5.538 9.596c4.996 8.658 6.326 18.739 3.739 28.389z" fill="#ff4057" fill-rule="nonzero" stroke="none" stroke-width="1" stroke-linecap="butt" stroke-linejoin="miter" stroke-miterlimit="10" stroke-dasharray="" stroke-dashoffset="0" font-family="none" font-weight="none" font-size="none" text-anchor="none" style="mix-blend-mode: normal" data-fill-palette-color="tertiary"></path></g><g transform="matrix(1,0,0,1,64,91.58719790986284)"><svg viewBox="0 0 192 176.82560418027433" height="176.82560418027433" width="192"><g><svg viewBox="0 0 192 176.82560418027433" height="176.82560418027433" width="192"><g><svg viewBox="0 0 192 176.82560418027433" height="176.82560418027433" width="192"><g id="textblocktransform"><svg viewBox="0 0 192 176.82560418027433" height="176.82560418027433" width="192" id="textblock"><g><svg viewBox="0 0 192 176.82560418027433" height="176.82560418027433" width="192"><g transform="matrix(1,0,0,1,0,0)"><svg width="192" viewBox="0.12 -34.42 37.38 34.42" height="176.82560418027433" data-palette-color="#ff4057"><g class="wordmark-text-0" data-fill-palette-color="primary" id="text-0"><path d="M0.12-0.2L0.12-1.15Q0.12-1.34 0.32-1.34L0.32-1.34Q0.78-1.37 1.4-1.48 2.03-1.59 2.67-1.94 3.32-2.29 3.93-2.99 4.54-3.69 4.96-4.91L4.96-4.91 14.77-33.37Q14.77-33.35 14.78-33.4 14.79-33.45 14.79-33.5L14.79-33.5Q14.79-33.67 14.66-33.92 14.53-34.18 14.53-34.3L14.53-34.3Q14.53-34.42 14.62-34.42L14.62-34.42 21.7-34.42Q21.75-34.4 21.84-34.38 21.92-34.35 21.97-34.23L21.97-34.23 32.3-5.25Q32.54-4.57 32.76-4.08 32.98-3.59 33.29-3.21 33.59-2.83 34.06-2.53 34.52-2.22 35.25-1.9L35.25-1.9Q35.6-1.73 36.18-1.54 36.77-1.34 37.3-1.34L37.3-1.34Q37.43-1.34 37.46-1.27 37.5-1.2 37.5-1.12L37.5-1.12 37.5-0.2Q37.5-0.15 37.46-0.07 37.43 0 37.3 0L37.3 0 20.17 0Q20.04 0 20.01-0.07 19.97-0.15 19.97-0.2L19.97-0.2 19.97-1.15Q19.97-1.2 20.01-1.27 20.04-1.34 20.17-1.34L20.17-1.34Q20.26-1.34 20.36-1.35 20.46-1.37 20.51-1.37L20.51-1.37Q20.78-1.39 21.28-1.42 21.78-1.44 22.36-1.5 22.95-1.56 23.55-1.7 24.15-1.83 24.63-2.09 25.12-2.34 25.44-2.76 25.76-3.17 25.76-3.78L25.76-3.78Q25.76-3.93 25.71-4.13L25.71-4.13 22.51-12.94Q22.49-12.99 22.42-13.16 22.36-13.33 22.23-13.51 22.09-13.7 21.89-13.84 21.68-13.99 21.39-13.99L21.39-13.99 12.57-13.99Q12.26-13.99 12.04-13.84 11.82-13.7 11.67-13.53 11.52-13.35 11.44-13.18 11.35-13.01 11.35-12.99L11.35-12.99Q10.57-10.69 10.03-9.12 9.5-7.54 9.14-6.52 8.79-5.49 8.59-4.93 8.4-4.37 8.31-4.11 8.23-3.86 8.22-3.8 8.2-3.74 8.2-3.74L8.2-3.74Q8.2-3.66 8.23-3.58 8.25-3.49 8.28-3.42L8.28-3.42Q8.47-2.81 9-2.4 9.52-2 10.21-1.77 10.89-1.54 11.61-1.44 12.33-1.34 12.89-1.34L12.89-1.34 13.53-1.34Q13.65-1.34 13.68-1.27 13.72-1.2 13.72-1.15L13.72-1.15 13.72-0.2Q13.72-0.15 13.68-0.07 13.65 0 13.53 0L13.53 0 0.32 0Q0.12 0 0.12-0.2L0.12-0.2ZM15.99-26.39L12.92-17.5Q12.87-17.38 12.84-17.26 12.82-17.14 12.82-17.02L12.82-17.02Q12.82-16.87 12.89-16.78 12.96-16.7 13.18-16.7L13.18-16.7 20.51-16.7Q20.78-16.7 20.86-16.81 20.95-16.92 20.95-17.07L20.95-17.07Q20.95-17.19 20.92-17.29 20.9-17.38 20.85-17.5L20.85-17.5 17.6-26.42Q17.48-26.76 17.24-26.92 16.99-27.08 16.8-27.08L16.8-27.08Q16.6-27.08 16.36-26.89 16.11-26.71 15.99-26.39L15.99-26.39Z" fill="#ff4057" data-fill-palette-color="primary"></path></g></svg></g></svg></g></svg></g></svg></g></svg></g></svg></g></svg></g><defs></defs></svg><rect width="320" height="360" fill="none" stroke="none" visibility="hidden"></rect></g></svg></g></svg>